<?xml version="1.0" standalone="no"?>
<!DOCTYPE svg PUBLIC "-//W3C//DTD SVG 20010904//EN"
 "http://www.w3.org/TR/2001/REC-SVG-20010904/DTD/svg10.dtd">
<svg version="1.0" xmlns="http://www.w3.org/2000/svg"
 width="195.000000pt" height="195.000000pt" viewBox="0 0 195.000000 195.000000"
 preserveAspectRatio="xMidYMid meet">
<metadata>
Created by potrace 1.11, written by Peter Selinger 2001-2013
</metadata>
<g transform="translate(0.000000,195.000000) scale(0.100000,-0.100000)"
fill="#000000" stroke="none">
<path d="M700 1939 c0 -5 -7 -9 -15 -9 -8 0 -15 -4 -15 -10 0 -5 -5 -10 -10
-10 -6 0 -38 -18 -71 -40 -33 -22 -65 -40 -70 -40 -5 0 -9 -6 -9 -14 0 -8 -8
-13 -17 -12 -10 0 -17 -5 -15 -12 1 -8 -2 -11 -9 -6 -6 3 -14 3 -18 -2 -3 -5
-19 -17 -36 -26 -16 -10 -29 -22 -27 -28 1 -7 -2 -9 -7 -5 -6 3 -48 -18 -93
-47 l-83 -53 -2 -538 c-2 -415 1 -536 10 -530 9 5 9 3 1 -8 -7 -8 -12 -57 -13
-116 -1 -95 1 -103 22 -118 40 -29 231 -151 267 -171 19 -10 37 -21 40 -24 10
-11 60 -40 63 -38 2 2 11 -5 21 -15 10 -9 22 -14 28 -11 6 4 8 3 5 -3 -3 -5
11 -20 33 -32 34 -19 40 -20 53 -6 9 8 19 15 24 15 4 0 22 12 38 28 16 15 30
25 31 22 3 -7 83 43 84 53 0 4 6 7 13 7 19 0 78 46 70 54 -4 4 0 4 10 0 11 -4
17 -1 17 7 0 7 3 10 6 7 5 -5 121 65 151 91 7 6 14 11 16 11 11 0 142 93 140
100 -1 4 4 7 11 7 23 0 196 115 189 126 -4 6 -1 7 6 3 7 -5 28 3 49 17 20 14
64 41 97 61 33 20 54 36 47 36 -8 0 -10 5 -6 12 10 15 9 622 -1 637 -4 7 -13
10 -21 7 -8 -3 -13 -2 -11 2 1 4 -2 7 -6 7 -5 0 -13 8 -18 18 -6 9 -14 17 -19
17 -5 0 -36 18 -69 40 -33 22 -65 40 -71 40 -5 0 -10 5 -10 10 0 6 -5 10 -10
10 -9 0 -65 35 -80 50 -15 15 -52 30 -61 25 -5 -4 -8 -1 -7 6 4 15 -151 111
-165 102 -5 -3 -7 -2 -4 4 4 6 -15 22 -41 37 -26 14 -114 69 -195 121 -81 52
-152 95 -158 95 -5 0 -9 5 -9 10 0 6 -7 10 -15 10 -8 0 -15 4 -15 9 0 5 -9 11
-20 14 -11 3 -20 1 -20 -4z m-125 -229 c-3 -5 -12 -10 -18 -10 -7 0 -6 4 3 10
19 12 23 12 15 0z m-124 -917 c13 -16 12 -17 -3 -4 -10 7 -18 15 -18 17 0 8 8
3 21 -13z m240 -160 c13 -16 12 -17 -3 -4 -10 7 -18 15 -18 17 0 8 8 3 21 -13z
m-41 -443 c0 -5 -5 -10 -11 -10 -5 0 -7 5 -4 10 3 6 8 10 11 10 2 0 4 -4 4
-10z m314 -6 c3 -8 2 -12 -4 -9 -6 3 -10 10 -10 16 0 14 7 11 14 -7z"/>
</g>
</svg>
