<svg id="PDF" xmlns="http://www.w3.org/2000/svg" width="70.03" height="69.8" viewBox="0 0 70.03 69.8">
  <path id="Path_3" data-name="Path 3" d="M58.876,17.739l-12.76-14.8L43.587,0H13.434A7.325,7.325,0,0,0,6.1,7.333v9.317h4.543l0-7.532A4.119,4.119,0,0,1,14.755,5l25.8-.023v12.22a8.228,8.228,0,0,0,8.229,8.236h8.933l-.443,35.242a4.132,4.132,0,0,1-4.111,4.116L14.429,64.77c-2.072,0-3.74-2.032-3.754-4.54V57.247H6.127V61.7c0,4.475,3,8.107,6.675,8.107l41.679-.012a7.338,7.338,0,0,0,7.33-7.335V21.151l-2.935-3.412" transform="translate(8.218 -0.003)" fill="#fff"/>
  <path id="Path_4" data-name="Path 4" d="M47.268,51.271H0V6.129H47.268V51.271M4.538,46.728H42.723V10.672H4.538" transform="translate(0 8.245)" fill="#fff"/>
  <path id="Path_5" data-name="Path 5" d="M19.453,9.283c.716.331.568.77.347,2.818a42.5,42.5,0,0,1-2.421,9.791,52.793,52.793,0,0,1-5.455,10.3,28.379,28.379,0,0,1-4.688,5.6A5.466,5.466,0,0,1,4.62,39.2c-.547.094-.8,0-.95-.275A1.957,1.957,0,0,1,3.6,37.63,4.05,4.05,0,0,1,4.868,35.6a16.165,16.165,0,0,1,4.188-2.787A44.947,44.947,0,0,1,15.537,30.4a45.588,45.588,0,0,1,5.035-1.173,37.2,37.2,0,0,1,3.764-.53,21.072,21.072,0,0,1,3.442,0,20.5,20.5,0,0,1,3.163.507,8.076,8.076,0,0,1,2.445.943,4.136,4.136,0,0,1,1.6,1.7,2.4,2.4,0,0,1,.049,1.936,2.046,2.046,0,0,1-1.321,1.035,3.227,3.227,0,0,1-2,0A9.6,9.6,0,0,1,29.1,33.413a24.526,24.526,0,0,1-3.24-2.785,57.784,57.784,0,0,1-4.24-4.747,32.845,32.845,0,0,1-3.186-4.77A17.542,17.542,0,0,1,16.962,17.4a19.742,19.742,0,0,1-.673-3.337,11.775,11.775,0,0,1,.049-2.7,3.956,3.956,0,0,1,.5-1.661,1.753,1.753,0,0,1,.849-.645,2,2,0,0,1,.549-.115,1.019,1.019,0,0,1,.521,0,4.323,4.323,0,0,1,.8.422" transform="translate(4.747 11.989)" fill="none" stroke="#ea4c3a" stroke-linejoin="round" stroke-miterlimit="10" stroke-width="0.75"/>
</svg>
