<svg xmlns="http://www.w3.org/2000/svg" width="102" height="102" viewBox="0 0 102 102">
  <g id="js" transform="translate(-26.002 -26.34)">
    <g id="Group_16" data-name="Group 16" transform="translate(26.002 26)">
      <rect id="Rectangle_14" data-name="Rectangle 14" width="102" height="102" transform="translate(0 0.34)" fill="#f0db4f"/>
      <path id="Path_27" data-name="Path 27" d="M175.654,270.031c0,9.958-5.847,14.5-14.367,14.5-7.7,0-12.15-3.974-14.435-8.793l7.834-4.728c1.507,2.672,2.878,4.933,6.19,4.933,3.152,0,5.162-1.233,5.162-6.052V237.21h9.615v32.821Z" transform="translate(-119.971 -190.212)" fill="#323330"/>
      <path id="Path_28" data-name="Path 28" d="M317.362,282.619c-8.93,0-14.709-4.248-17.518-9.821l7.834-4.523c2.056,3.358,4.75,5.847,9.478,5.847,3.974,0,6.532-1.987,6.532-4.75,0-3.289-2.6-4.454-7.011-6.4l-2.4-1.028c-6.943-2.946-11.534-6.669-11.534-14.5,0-7.218,5.5-12.7,14.069-12.7,6.121,0,10.506,2.124,13.658,7.7l-7.492,4.8c-1.644-2.946-3.426-4.111-6.189-4.111-2.809,0-4.591,1.782-4.591,4.111,0,2.878,1.782,4.043,5.916,5.847l2.4,1.028c8.177,3.495,12.768,7.081,12.768,15.12,0,8.633-6.806,13.384-15.919,13.384Z" transform="translate(-238.93 -188.297)" fill="#323330"/>
    </g>
  </g>
</svg>
